<svg xmlns="http://www.w3.org/2000/svg" version="1.1" xmlns:xlink="http://www.w3.org/1999/xlink" xmlns:svgjs="http://svgjs.dev/svgjs" width="1500" height="208" viewBox="0 0 1500 208"><g transform="matrix(1,0,0,1,-0.90908995452196,-0.417506023936852)"><svg viewBox="0 0 396 55" data-background-color="#ffffff" preserveAspectRatio="xMidYMid meet" height="208" width="1500" xmlns="http://www.w3.org/2000/svg" xmlns:xlink="http://www.w3.org/1999/xlink"><g id="tight-bounds" transform="matrix(1,0,0,1,0.23999974799380652,0.11039822748330153)"><svg viewBox="0 0 395.52 54.77920354503337" height="54.77920354503337" width="395.52"><g><svg viewBox="0 0 683.3255702128913 94.64004474670804" height="54.77920354503337" width="395.52"><g><rect width="8.492275526153543" height="94.64004474670804" x="257.08220692193794" y="0" fill="#0e5ddd" opacity="1" stroke-width="0" stroke="transparent" fill-opacity="1" class="rect-yte-0" data-fill-palette-color="primary" rx="1%" id="yte-0" data-palette-color="#0e5ddd"></rect></g><g transform="matrix(1,0,0,1,287.8055702128913,0.23542299688235602)"><svg viewBox="0 0 395.5199999999999 94.16919875294333" height="94.16919875294333" width="395.5199999999999"><g id="textblocktransform"><svg viewBox="0 0 395.5199999999999 94.16919875294333" height="94.16919875294333" width="395.5199999999999" id="textblock"><g><svg viewBox="0 0 395.5199999999999 94.16919875294333" height="94.16919875294333" width="395.5199999999999"><g transform="matrix(1,0,0,1,0,0)"><svg width="395.5199999999999" viewBox="3.91 -38.38 163.74243866375798 38.99" height="94.16919875294333" data-palette-color="#0e5ddd"><path d="M22.22 0L9.94 0Q7.42 0 6.12-0.63 4.81-1.27 4.36-2.71 3.91-4.15 3.91-6.54L3.91-6.54 3.91-28.47Q3.91-30.91 4.36-32.34 4.81-33.76 6.12-34.39 7.42-35.01 9.94-35.01L9.94-35.01 21.41-35.01Q22-35.01 22.29-34.81L22.29-34.81Q22.92-34.38 23.61-33.76 24.29-33.15 25.05-32.3L25.05-32.3Q25.29-31.98 25.29-31.79L25.29-31.79Q25.29-31.57 25.05-31.3L25.05-31.3Q24.29-30.44 23.61-29.83 22.92-29.22 22.29-28.78L22.29-28.78Q21.95-28.59 21.41-28.59L21.41-28.59 14.58-28.59Q12.96-28.59 12.38-27.91 11.79-27.22 11.79-25.56L11.79-25.56 11.79-20.83 20.56-20.83Q21.14-20.83 21.44-20.63L21.44-20.63Q22.07-20.19 22.75-19.58 23.44-18.97 24.19-18.12L24.19-18.12Q24.44-17.8 24.44-17.6L24.44-17.6Q24.44-17.38 24.19-17.11L24.19-17.11Q23.44-16.26 22.75-15.65 22.07-15.04 21.44-14.6L21.44-14.6Q21.09-14.4 20.56-14.4L20.56-14.4 11.79-14.4 11.79-9.47Q11.79-7.84 12.38-7.13 12.96-6.42 14.58-6.42L14.58-6.42 22.22-6.42Q22.8-6.42 23.1-6.23L23.1-6.23Q23.73-5.79 24.41-5.18 25.1-4.57 25.85-3.71L25.85-3.71Q26.1-3.39 26.1-3.2L26.1-3.2Q26.1-2.98 25.85-2.71L25.85-2.71Q25.1-1.86 24.41-1.25 23.73-0.63 23.1-0.2L23.1-0.2Q22.75 0 22.22 0L22.22 0ZM39.45 0.61L39.45 0.61Q36.2 0.61 33.92-0.99 31.64-2.59 30.45-5.41 29.27-8.23 29.27-11.91L29.27-11.91Q29.27-16.77 30.99-19.79 32.71-22.8 35.85-24.22 38.99-25.63 43.26-25.63L43.26-25.63Q44.72-25.63 45.69-25.49 46.65-25.34 47.07-25.22L47.07-25.22 47.07-34.33Q47.07-34.91 47.31-35.23L47.31-35.23Q48.34-36.57 50.31-38.13L50.31-38.13Q50.66-38.38 50.93-38.38L50.93-38.38Q51.24-38.38 51.54-38.13L51.54-38.13Q52.59-37.33 53.31-36.62 54.03-35.91 54.54-35.23L54.54-35.23Q54.78-34.91 54.78-34.33L54.78-34.33 54.78-1.12Q54.78-0.66 54.47-0.33 54.15 0 53.66 0L53.66 0 50.02 0Q49.63 0 49.33-0.11 49.02-0.22 48.75-0.54L48.75-0.54 47.24-2.49 47.07-2.49Q46.75-2 45.93-1.26 45.11-0.51 43.56 0.05 42.01 0.61 39.45 0.61ZM41.82-5.64L41.82-5.64Q44.02-5.64 45.27-6.47 46.53-7.3 47.07-8.57L47.07-8.57 47.07-18.8Q46.68-19.04 45.77-19.38 44.87-19.73 43.23-19.73L43.23-19.73Q40.21-19.73 38.69-17.75 37.18-15.77 37.18-12.43L37.18-12.43Q37.18-8.96 38.45-7.3 39.72-5.64 41.82-5.64ZM70.09 0.61L70.09 0.61Q61.4 0.61 61.4-9.91L61.4-9.91 61.37-22.31Q61.37-22.9 61.62-23.22L61.62-23.22Q62.64-24.56 64.62-26.12L64.62-26.12Q64.96-26.37 65.23-26.37L65.23-26.37Q65.55-26.37 65.84-26.12L65.84-26.12Q66.89-25.32 67.61-24.61 68.33-23.9 68.84-23.22L68.84-23.22Q69.09-22.9 69.09-22.31L69.09-22.31 69.09-10.6Q69.09-5.3 73.29-5.3L73.29-5.3Q75.36-5.3 76.61-6.75 77.85-8.2 77.85-10.69L77.85-10.69 77.85-22.31Q77.85-22.9 78.1-23.22L78.1-23.22Q79.12-24.56 81.1-26.12L81.1-26.12Q81.44-26.37 81.71-26.37L81.71-26.37Q82.03-26.37 82.32-26.12L82.32-26.12Q83.37-25.32 84.09-24.61 84.81-23.9 85.32-23.22L85.32-23.22Q85.57-22.9 85.57-22.31L85.57-22.31 85.57-1.12Q85.57-0.66 85.25-0.33 84.93 0 84.44 0L84.44 0 80.78 0Q80.39 0 80.09-0.11 79.78-0.22 79.51-0.54L79.51-0.54 78-2.49 77.83-2.49Q77.44-1.93 76.62-1.2 75.8-0.46 74.25 0.07 72.7 0.61 70.09 0.61ZM111.61-33.08L111.61-33.08Q112.96-31.2 114.36-28.23 115.76-25.27 117.08-21.73 118.4-18.19 119.46-14.49 120.52-10.79 121.21-7.37 121.89-3.96 121.99-1.29L121.99-1.29Q122.01 0 120.82 0L120.82 0 114.91 0Q113.76 0 113.71-1.15L113.71-1.15Q113.62-3.88 112.83-7.79L112.83-7.79 99.5-7.79Q98.82-3.98 98.72-1.15L98.72-1.15Q98.67 0 97.48 0L97.48 0 91.69 0Q91.25 0 90.96-0.26 90.67-0.51 90.69-1.15L90.69-1.15Q90.81-3.86 91.48-7.31 92.16-10.77 93.23-14.48 94.3-18.19 95.62-21.74 96.94-25.29 98.36-28.25 99.77-31.2 101.12-33.08L101.12-33.08Q101.82-34.08 102.62-34.55 103.41-35.01 104.58-35.01L104.58-35.01 108.1-35.01Q109.29-35.01 110.1-34.55 110.91-34.08 111.61-33.08ZM106.24-27.29L106.1-27.29Q104.48-24.73 103.14-21.17 101.8-17.6 100.82-13.84L100.82-13.84 111.42-13.84Q110.39-17.6 109.05-21.17 107.71-24.73 106.24-27.29L106.24-27.29ZM134.83-22.17L134.83-20.36 134.93-20.36Q136.76-25.44 141.52-25.44L141.52-25.44Q142.13-25.44 142.52-25.38 142.91-25.32 143.06-25.27L143.06-25.27Q143.42-25.15 143.42-24.71L143.42-24.71 143.42-18.82Q143.42-18.07 142.54-18.41L142.54-18.41Q142.25-18.53 141.7-18.66 141.15-18.8 140.18-18.8L140.18-18.8Q137.66-18.8 136.24-16.96 134.83-15.11 134.83-11.94L134.83-11.94 134.83-1.29Q134.83-0.56 134.52-0.28 134.22 0 133.49 0L133.49 0 128.46 0Q127.72 0 127.42-0.28 127.11-0.56 127.11-1.29L127.11-1.29 127.11-21.75Q127.11-22.34 127.36-22.66L127.36-22.66Q127.87-23.34 128.59-24.05 129.31-24.76 130.36-25.56L130.36-25.56Q130.56-25.71 130.75-25.76 130.95-25.81 131.09-25.81L131.09-25.81Q131.44-25.81 131.78-25.56L131.78-25.56Q133.8-23.97 134.61-22.85L134.61-22.85Q134.83-22.56 134.83-22.17L134.83-22.17ZM159.51-25.61L159.51-25.61Q162.41-25.61 163.73-25.13 165.05-24.66 165.39-24.39L165.39-24.39Q165.93-24.05 166.22-23.51L166.22-23.51Q166.39-23.24 166.61-22.58 166.83-21.92 166.93-21.14L166.93-21.14Q167.05-20.53 166.96-20.28 166.86-20.02 166.34-19.65L166.34-19.65Q165.76-19.26 165.06-18.96 164.37-18.65 163.93-18.53L163.93-18.53Q163.56-18.43 163.37-18.48 163.17-18.53 162.83-18.77L162.83-18.77Q162.44-19.04 161.73-19.37 161.02-19.7 159.78-19.7L159.78-19.7Q158.19-19.7 156.76-18.92 155.33-18.14 154.44-16.58 153.55-15.01 153.55-12.67L153.55-12.67Q153.55-9.16 155.4-7.23 157.24-5.3 160.34-5.3L160.34-5.3Q161.93-5.3 162.98-5.63 164.03-5.96 164.64-6.3L164.64-6.3Q165.12-6.57 165.38-6.43 165.64-6.3 165.78-5.96L165.78-5.96 167.57-1.93Q167.83-1.29 167.27-1.03L167.27-1.03Q166.37-0.56 164.29 0.02 162.22 0.61 159.17 0.61L159.17 0.61Q153.04 0.61 149.38-2.65 145.72-5.91 145.72-12.4L145.72-12.4Q145.72-16.55 147.4-19.51 149.08-22.46 152.18-24.04 155.29-25.61 159.51-25.61Z" opacity="1" transform="matrix(1,0,0,1,0,0)" fill="#0e5ddd" class="wordmark-text-0" data-fill-palette-color="primary" id="text-0"></path></svg></g></svg></g></svg></g></svg></g><g transform="matrix(1,0,0,1,0,0.23542299688235602)"><svg viewBox="0 0 234.85111915713807 94.16919875294333" height="94.16919875294333" width="234.85111915713807"><g><svg xmlns="http://www.w3.org/2000/svg" xmlns:xlink="http://www.w3.org/1999/xlink" version="1.1" x="0" y="0" viewBox="19.4 37.7 61.6 24.699999999999996" enable-background="new 0 0 100 100" xml:space="preserve" height="94.16919875294333" width="234.85111915713807" class="icon-icon-0" data-fill-palette-color="accent" id="icon-0"><g fill="#f98f7c" data-fill-palette-color="accent"><path d="M78.1 62.4C76.6 62.4 75.4 61.2 75.4 59.7 75.4 50.6 64 43.2 50.1 43.2 36.1 43.2 24.8 50.6 24.8 59.7 24.8 61.2 23.6 62.4 22.1 62.4S19.4 61.2 19.4 59.7C19.4 47.6 33.2 37.7 50.2 37.7S81 47.6 81 59.7C80.8 61.1 79.6 62.4 78.1 62.4" fill="#f98f7c" data-fill-palette-color="accent"></path></g></svg></g></svg></g></svg></g><defs></defs></svg><rect width="395.52" height="54.77920354503337" fill="none" stroke="none" visibility="hidden"></rect></g></svg></g></svg>